<svg width="24" height="25" viewBox="0 0 24 25" fill="none" xmlns="http://www.w3.org/2000/svg">
<path fill-rule="evenodd" clip-rule="evenodd" d="M8.35078 18.5L3.6247 22.2809C2.96993 22.8047 2 22.3385 2 21.5V5.5C2 3.84315 3.34315 2.5 5 2.5H19C20.6569 2.5 22 3.84315 22 5.5V15.5C22 17.1569 20.6569 18.5 19 18.5H8.35078ZM4 19.4194L7.3753 16.7191C7.55262 16.5773 7.77293 16.5 8 16.5H19C19.5523 16.5 20 16.0523 20 15.5V5.5C20 4.94772 19.5523 4.5 19 4.5H5C4.44772 4.5 4 4.94772 4 5.5V19.4194Z" fill="#3B82F6"/>
</svg>
