<svg width="24" height="25" viewBox="0 0 24 25" fill="none" xmlns="http://www.w3.org/2000/svg">
<path fill-rule="evenodd" clip-rule="evenodd" d="M8.272 5.45258C7.174 5.45258 6.077 5.84958 5.241 6.64458C4.441 7.40658 4 8.41758 4 9.49158C4 10.5646 4.441 11.5756 5.241 12.3376L12 18.7696L18.759 12.3376C19.559 11.5756 20 10.5646 20 9.49158C20 8.41858 19.559 7.40658 18.759 6.64458C17.088 5.05458 14.368 5.05458 12.697 6.64458L12 7.30858L11.303 6.64458C10.467 5.84958 9.37 5.45258 8.272 5.45258V5.45258ZM12 21.4996L3.847 13.7406C2.656 12.6076 2 11.0986 2 9.49158C2 7.88458 2.656 6.37558 3.847 5.24158C6.067 3.12858 9.552 2.93858 12 4.66858C14.448 2.93858 17.933 3.12858 20.153 5.24158C21.344 6.37558 22 7.88458 22 9.49158C22 11.0986 21.344 12.6076 20.153 13.7406L12 21.4996Z" fill="#3B82F6"/>
</svg>
