<svg width="24" height="25" viewBox="0 0 24 25" fill="none" xmlns="http://www.w3.org/2000/svg">
<path fill-rule="evenodd" clip-rule="evenodd" d="M10.8976 2.50193L13.0201 2.50183C13.0843 2.50481 13.1406 2.51215 13.2197 2.52938C13.8002 2.65577 14.0209 2.86419 14.5611 4.14068L14.6491 4.35124L14.9886 5.19242L15.0165 5.2039L15.4539 5.00589C16.4066 4.5799 16.8976 4.40046 17.2278 4.3504L17.2962 4.34161L17.4209 4.33488C17.7182 4.33488 18.021 4.44019 18.2528 4.62354L18.3624 4.72159L19.7193 6.07289L19.8137 6.17259C20.2399 6.64212 20.2797 6.97499 19.8082 8.18817L19.6513 8.57955L19.2815 9.45451L19.2886 9.4716L20.1357 9.78794L20.5441 9.94934C21.599 10.3807 21.8158 10.6105 21.9568 11.1386C21.9852 11.2451 21.9953 11.3176 21.9986 11.4076L22 11.5054V13.4131C22 13.5488 21.9954 13.6253 21.962 13.7594C21.8216 14.3231 21.6132 14.5377 20.3455 15.0733L20.1363 15.1606L19.301 15.4977L19.2952 15.5118L19.5972 16.1716C20.3484 17.8411 20.3746 18.2071 19.8809 18.7569L19.8192 18.8239L18.4263 20.2158C18.1769 20.4678 17.8217 20.6066 17.4779 20.6066C17.186 20.6066 16.7275 20.4678 15.9459 20.1544L15.5275 19.983L15.0509 19.7815L15.0236 19.7927L14.7773 20.4532C14.1744 22.0418 13.9678 22.2997 13.3484 22.4596C13.2569 22.4832 13.1914 22.4933 13.1171 22.4973L12.9945 22.4999H11.0856C10.9665 22.4999 10.8993 22.4964 10.7809 22.4707C10.2007 22.3449 9.97914 22.136 9.43788 20.8588L9.34966 20.6481L9.0096 19.8065L8.98344 19.7957L8.34815 20.0813C7.332 20.5286 6.89179 20.6648 6.57806 20.6648C6.28426 20.6648 5.98508 20.5615 5.74708 20.3764L5.63349 20.2772L4.27843 18.9239L4.12369 18.7551C3.75208 18.3179 3.73381 17.9788 4.18994 16.8118L4.42762 16.2277L4.71777 15.5456L4.71172 15.5309L4.05484 15.2862C2.73708 14.7861 2.33098 14.5558 2.138 14.1353L2.0858 14.003L2.0422 13.8565C2.01752 13.7629 2.00699 13.6958 2.00272 13.6194L2 13.4935V11.5846C2 11.4479 2.00474 11.3707 2.03877 11.2355C2.16566 10.7315 2.34576 10.5077 3.29447 10.0826L3.68766 9.91276L4.69733 9.50445L4.70425 9.48764L4.32674 8.65471C3.70383 7.23985 3.65224 6.80905 4.04525 6.3279L4.09903 6.26477L4.22636 6.12981L5.57616 4.78307C5.82346 4.5344 6.1772 4.39421 6.5215 4.39421C6.76776 4.39421 7.12934 4.49165 7.70805 4.71084L8.29026 4.94164L8.95028 5.21826L8.97734 5.20701L9.22549 4.54219C9.83405 2.9422 10.0513 2.67463 10.6932 2.53093C10.7742 2.5128 10.8319 2.50507 10.8976 2.50193ZM12.523 4.49994H11.4081L11.2509 4.86847C11.1912 5.01498 11.1238 5.18611 11.0478 5.38475L10.6993 6.31688C10.6157 6.53756 10.4574 6.72034 10.2538 6.83467L10.1483 6.88598L9.3292 7.22684C9.1224 7.31289 8.89398 7.32655 8.6804 7.26794L8.55432 7.2241L7.58525 6.81562L7.06181 6.60689L6.70998 6.47704L5.91977 7.26545L6.01277 7.50036C6.04911 7.58884 6.09094 7.68776 6.13863 7.79797L6.2997 8.16324L6.70366 9.04633C6.80042 9.25663 6.82065 9.49258 6.76353 9.71404L6.71997 9.84487L6.38503 10.6588C6.29635 10.8743 6.13575 11.0509 5.93242 11.1598L5.82733 11.2084L4.73976 11.6456L4.19609 11.8787L4 11.9695V13.0996L4.23463 13.2013C4.32346 13.2385 4.42321 13.279 4.53477 13.3232L4.90579 13.4672L5.80732 13.802C6.03461 13.8839 6.22321 14.0448 6.34018 14.2532L6.39255 14.3612L6.72754 15.1727C6.81356 15.3811 6.82615 15.6111 6.76566 15.8256L6.7206 15.9522L6.33182 16.8645L6.088 17.4663L5.96921 17.7859L6.75948 18.5752L6.99479 18.4822C7.08146 18.4469 7.17645 18.4072 7.28 18.3631L8.00585 18.043L8.5293 17.802C8.74835 17.6973 8.99663 17.6765 9.22796 17.7408L9.342 17.78L10.1659 18.1201C10.3843 18.2103 10.5625 18.3743 10.6707 18.5815L10.7189 18.6886L10.9239 19.206L11.2157 19.9156L11.3846 20.3033L11.4762 20.4999H12.5944L12.7541 20.1235L12.9621 19.5924L13.3007 18.6843C13.3843 18.4617 13.5438 18.2773 13.7492 18.1626L13.8556 18.1111L14.676 17.7726C14.8804 17.6882 15.1058 17.6744 15.317 17.7312L15.4417 17.7737L16.2143 18.1014L16.7781 18.3311L17.0867 18.4501L17.2903 18.5238L18.0815 17.734L17.929 17.3577L17.7004 16.8362L17.2956 15.9538C17.1985 15.7432 17.1782 15.5067 17.2356 15.2848L17.2793 15.1538L17.6137 14.3434C17.7019 14.1296 17.861 13.9541 18.0624 13.8452L18.1665 13.7964L19.0876 13.4261L19.5578 13.229L19.6871 13.1728L20 13.0296V11.9006L19.6863 11.7667L19.2615 11.5985L18.1891 11.1993C17.9623 11.1168 17.7744 10.9556 17.658 10.7473L17.6059 10.6393L17.2715 9.82446C17.1862 9.61658 17.1738 9.38733 17.2341 9.17349L17.279 9.04733L17.5895 8.32144C17.6703 8.12948 17.7406 7.95925 17.8014 7.8088L17.9103 7.53366L18.029 7.21215L17.2384 6.42476L17.0029 6.51792C16.8727 6.57102 16.7235 6.63404 16.5542 6.70763L16.3782 6.78477L15.4554 7.20334C15.2454 7.29954 15.0101 7.31955 14.7891 7.26257L14.6586 7.21915L13.8352 6.88068C13.6196 6.79208 13.443 6.63153 13.334 6.42823L13.2853 6.32315L12.9942 5.59476L12.7832 5.08446L12.6663 4.81307L12.523 4.49994ZM12.0005 8.49994C14.2066 8.49994 16 10.293 16 12.4991C16 14.7053 14.2065 16.4999 12.0005 16.4999C9.79382 16.4999 8 14.7056 8 12.4991C8 10.2926 9.79369 8.49994 12.0005 8.49994ZM12.0005 10.4999C10.898 10.4999 10 11.3975 10 12.4991C10 13.6012 10.8985 14.4999 12.0005 14.4999C13.1016 14.4999 14 13.601 14 12.4991C14 11.3976 13.1021 10.4999 12.0005 10.4999Z" fill="#3B82F6"/>
</svg>
