<svg width="56" height="56" viewBox="0 0 56 56" fill="none" xmlns="http://www.w3.org/2000/svg">
<rect x="1" y="1" width="54" height="54" rx="27" fill="white"/>
<path fill-rule="evenodd" clip-rule="evenodd" d="M37 33C37.5523 33 38 33.4477 38 34C38 34.5523 37.5523 35 37 35H19C18.4477 35 18 34.5523 18 34C18 33.4477 18.4477 33 19 33H37ZM37 27C37.5523 27 38 27.4477 38 28C38 28.5523 37.5523 29 37 29H19C18.4477 29 18 28.5523 18 28C18 27.4477 18.4477 27 19 27H37ZM37 21C37.5523 21 38 21.4477 38 22C38 22.5523 37.5523 23 37 23H19C18.4477 23 18 22.5523 18 22C18 21.4477 18.4477 21 19 21H37Z" fill="#3B82F6"/>
<rect x="1" y="1" width="54" height="54" rx="27" stroke="#3B82F6" stroke-width="2"/>
</svg>
