<svg width="24" height="25" viewBox="0 0 24 25" fill="none" xmlns="http://www.w3.org/2000/svg">
<path fill-rule="evenodd" clip-rule="evenodd" d="M5.00001 20.5C4.29575 20.5 3.82474 19.7979 4.05979 19.1586L4.10558 19.0528L5.261 16.742C5.69839 15.8672 5.94708 14.9115 5.99244 13.9369L6.00001 13.6115V10.5C6.00001 7.52694 8.16239 5.05893 11.0002 4.58293L11 3.5C11 2.94772 11.4477 2.5 12 2.5C12.5523 2.5 13 2.94772 13 3.5L13.0008 4.58309C15.7593 5.04627 17.8794 7.39172 17.995 10.2535L18 10.5V13.6115C18 14.5895 18.205 15.5555 18.6002 16.4474L18.739 16.742L19.8944 19.0528C20.2094 19.6827 19.792 20.418 19.1151 20.4936L19 20.5H14C14 21.6046 13.1046 22.5 12 22.5C10.8954 22.5 10 21.6046 10 20.5H5.00001ZM12 6.5C9.85781 6.5 8.10893 8.18397 8.0049 10.3004L8.00001 10.5V13.6115C8.00001 14.8922 7.72666 16.1569 7.19981 17.3213L7.04985 17.6364L6.61804 18.5H17.382L16.9502 17.6364C16.3774 16.4908 16.0563 15.2374 16.0068 13.9603L16 13.6115V10.5C16 8.29086 14.2091 6.5 12 6.5Z" fill="#3B82F6"/>
<circle cx="18" cy="6.5" r="6" fill="#BBF7D0"/>
<circle cx="18" cy="6.5" r="3" fill="#22C55E"/>
</svg>
